<?xml version="1.0" encoding="UTF-8" standalone="no"?>
<svg
   version="1.0"
   width="241.76106pt"
   height="275.03693pt"
   viewBox="0 0 241.76107 275.03693"
   preserveAspectRatio="xMidYMid"
   id="svg146"
   xml:space="preserve"
   xmlns="http://www.w3.org/2000/svg"
   xmlns:svg="http://www.w3.org/2000/svg"><defs
     id="defs150" /><metadata
     id="metadata116">
Created by potrace 1.16, written by Peter Selinger 2001-2019
</metadata><g
     id="ai"
     transform="translate(-100.13917,-130.89164)"
     style="fill:#006680"><desc
       id="desc1798">AI</desc><path
       d="m 208,135.3 c -32.5,18.9 -100.1,60.5 -102.7,63.2 -1.7,1.8 -3.7,5.2 -4.3,7.4 -0.7,2.8 -1,23.3 -0.8,64.9 l 0.3,60.8 2.7,4.1 c 3,4.6 1.3,3.5 48.3,31.5 19.8,11.9 41,24.6 47,28.3 6.1,3.8 12.6,7.7 14.5,8.7 4.2,2.2 10.8,2.3 15.7,0.3 3.2,-1.4 43.3,-25.3 89.7,-53.7 11,-6.7 18,-11.7 20,-14.1 l 3.1,-3.9 0.3,-62.1 c 0.3,-68.1 0.3,-67.3 -5.6,-73 -1.5,-1.4 -9.9,-6.8 -18.7,-11.9 -8.8,-5.2 -31.7,-19 -51,-30.8 -19.2,-11.7 -36.4,-21.9 -38.2,-22.6 -6.3,-2.7 -12.1,-1.8 -20.3,2.9 z m 1.9,53.8 3.1,1.1 v 17.4 17.4 l -2.7,-0.6 c -4.6,-1.1 -8.1,-3.6 -11.3,-8.1 -5.1,-7 -11,-7.2 -11,-0.4 0,8.1 6,14 18.3,18.3 l 6.7,2.3 v 27.2 27.3 h -2.5 c -3.6,0 -11.7,3.3 -15.7,6.3 -8.9,6.8 -10.8,24.7 -2.7,24.7 2.1,0 3.4,-2.1 4.3,-7.2 1.2,-6.4 5.8,-10.6 14.4,-13.3 l 2.2,-0.6 -0.2,19.7 -0.3,19.7 -3.9,2 c -8.1,4.2 -19.2,3.2 -26,-2.5 -3.7,-3 -7.6,-9.4 -7.6,-12.3 0,-0.8 -0.7,-1.5 -1.6,-1.5 -4.3,0 -10.2,-2.8 -14.1,-6.6 -5.4,-5.4 -7.3,-12.8 -5.5,-21.3 1.1,-5 1,-5.7 -0.4,-6.6 -7.9,-4.7 -11.6,-11 -11.6,-19.5 0,-6.8 1.7,-10.4 7.2,-15.4 l 4.1,-3.7 -1.7,-4.5 c -2.3,-6 -1.4,-14.3 2.1,-19.4 2.5,-3.6 10.7,-9 13.8,-9 0.9,0 1.6,-1.4 2,-4 1.2,-9 8.9,-19.5 17.7,-24 7.1,-3.6 17.1,-4.9 22.9,-2.9 z m 42,2.4 c 10.4,5.2 19.3,15.6 20.7,24.2 0.5,3.6 1.1,4.3 3.5,4.8 11.1,2.5 18.2,17.4 13.6,28.6 -1.3,3.4 -1.3,3.4 3.4,8 5.4,5.3 7.5,10.8 6.5,17.8 -0.8,6 -4.7,12.3 -9.1,14.6 -3.2,1.8 -3.5,2.2 -2.8,5 1.5,5.7 0.8,14.8 -1.5,19.1 -2.8,5.5 -8.2,10.1 -13.4,11.4 -6.6,1.7 -6.8,1.8 -6.8,3.8 0,3.6 -5.6,10.8 -10.2,13 -8.5,4.2 -20.3,3.7 -26.3,-1 l -2.5,-1.9 v -30.6 -30.5 l 4.3,0.7 c 8.3,1.3 12,5.8 13.1,15.7 0.7,6.8 1.5,7.8 6.3,7.8 3.5,0 4.6,-1.3 5.6,-6.8 0.8,-4.1 -2.4,-14.3 -5.9,-19 -3,-3.9 -9.9,-7.5 -17.6,-9.2 l -5.8,-1.3 v -35.8 c 0,-19.6 0.3,-36.5 0.6,-37.4 2,-5.1 15.1,-5.7 24.3,-1 z"
       id="path118"
       style="fill:#006680;stroke:none;stroke-width:0.1" /><path
       d="m 169.5,243.4 c -1.5,1.1 -1.7,2.2 -1.2,6.8 1.2,12.4 9.6,21.1 21.6,22.5 4.1,0.5 5.2,0.2 7,-1.6 1.1,-1.1 2.1,-2.5 2.1,-2.9 0,-1.7 -2.6,-4.2 -4.9,-4.7 -8.8,-1.7 -12.5,-4.9 -16.1,-13.8 -1.2,-3.2 -3.1,-6.2 -4.1,-6.7 -2.2,-1.3 -2.2,-1.3 -4.4,0.4 z"
       id="path120"
       style="fill:#006680;stroke:none;stroke-width:0.1" /><path
       d="m 244,210 c -1.8,1.8 -2,3.3 -2,16.3 0,16.8 0.3,17.6 7.5,18.4 9.6,1 13.5,5.2 13.5,14.7 0,6.5 3.3,9.3 7.4,6.3 1.2,-0.9 1.9,-3.2 2.3,-7.3 1,-10.6 -4.6,-19.4 -14.9,-23.7 l -3.6,-1.5 -0.4,-10.7 c -0.3,-9.8 -0.5,-10.8 -2.7,-12.6 -3,-2.4 -4.6,-2.4 -7.1,0.1 z"
       id="path122"
       style="fill:#006680;stroke:none;stroke-width:0.1" /></g></svg>
